<svg xmlns="http://www.w3.org/2000/svg" width="169" height="48" fill="none"><path fill="#fff" d="M45.765 22.2h3.13l5.422 14.453 5.446-14.452h3.115v17.2H60.71V25.092h-.048L55.303 39.4H53.37l-5.39-14.307h-.049V39.4h-2.167V22.2Zm31.623 17.152c-.444.243-.945.36-1.45.339-1.06 0-1.737-.581-1.737-1.935a5.527 5.527 0 0 1-4.382 1.934c-2.269 0-4.121-1.01-4.121-3.492 0-2.82 2.094-3.424 4.217-3.83 2.264-.436 4.189-.29 4.189-1.834 0-1.78-1.451-2.07-2.772-2.07-1.731 0-3.008.527-3.105 2.36h-2.046c.117-3.085 2.506-4.169 5.273-4.169 2.244 0 4.677.484 4.677 3.425v6.404c0 .967 0 1.398.648 1.398.215-.002.428-.043.629-.121l-.02 1.59Zm-3.328-6.385c-.793.58-2.336.605-3.71.847-1.373.242-2.505.72-2.505 2.24 0 1.349 1.156 1.828 2.419 1.828 2.699 0 3.806-1.684 3.806-2.816l-.01-2.099ZM90.448 39.4h-2.046v-1.673h-.048c-.677 1.373-2.263 1.978-3.976 1.978-3.83 0-5.731-3.038-5.731-6.554 0-3.516 1.876-6.481 5.683-6.481 1.277 0 3.11.484 4.024 1.935h.049V22.2h2.045v17.2Zm-5.804-1.518c2.748 0 3.807-2.36 3.807-4.697 0-2.457-1.108-4.72-3.928-4.72s-3.734 2.384-3.734 4.836c-.014 2.317 1.21 4.58 3.855 4.58Zm8.866-10.936h1.935v2.626h.048c.968-1.998 2.36-2.99 4.576-2.902v2.157c-3.299 0-4.503 1.877-4.503 5.03V39.4H93.52l-.01-12.454Zm10.264-2.24h-2.051v-2.505h2.051v2.505Zm-2.051 2.24h2.051V39.4h-2.051V26.946ZM118.08 39.4h-2.046v-1.673h-.048c-.678 1.373-2.264 1.978-3.976 1.978-3.831 0-5.732-3.038-5.732-6.554 0-3.516 1.877-6.481 5.683-6.481 1.277 0 3.11.484 4.025 1.935h.048V22.2h2.046v17.2Zm-5.78-1.518c2.747 0 3.806-2.36 3.806-4.697 0-2.457-1.107-4.72-3.927-4.72-2.82 0-3.734 2.384-3.734 4.836.005 2.317 1.209 4.58 3.86 4.58h-.005Zm11.124-13.176h-2.046v-2.505h2.046v2.505Zm-2.046 2.24h2.046V39.4h-2.046V26.946Zm6.477 8.527c.072 1.833 1.664 2.418 3.352 2.418 1.277 0 3.008-.29 3.008-1.852 0-1.563-2.022-1.858-4.067-2.312-2.046-.455-4.073-1.137-4.073-3.521 0-2.506 2.481-3.54 4.648-3.54 2.747 0 4.938.87 5.108 3.902h-2.046c-.145-1.591-1.543-2.094-2.902-2.094-1.229 0-2.651.339-2.651 1.591 0 1.451 2.167 1.708 4.073 2.167 2.046.455 4.067 1.132 4.067 3.54 0 2.966-2.766 3.928-5.296 3.928-2.795 0-5.156-1.132-5.277-4.218l2.056-.01Zm13.64-8.527h2.481v1.808h-2.481v7.74c0 .943.261 1.107 1.538 1.107h.943v1.809h-1.582c-2.118 0-2.965-.435-2.965-2.723v-7.932h-2.118v-1.81h2.118v-3.729h2.051l.015 3.73Zm15.777 12.406a2.75 2.75 0 0 1-1.451.339c-1.059 0-1.736-.581-1.736-1.935a5.516 5.516 0 0 1-4.382 1.934c-2.264 0-4.121-1.01-4.121-3.492 0-2.82 2.099-3.424 4.217-3.83 2.264-.436 4.194-.29 4.194-1.834 0-1.78-1.451-2.07-2.772-2.07-1.736 0-3.013.527-3.11 2.36h-2.046c.121-3.085 2.506-4.169 5.277-4.169 2.24 0 4.673.484 4.673 3.425v6.404c0 .967 0 1.398.648 1.398a1.76 1.76 0 0 0 .628-.121l-.019 1.59Zm-3.323-6.385c-.798.58-2.341.605-3.71.847-1.368.242-2.505.72-2.505 2.24 0 1.349 1.156 1.828 2.418 1.828 2.694 0 3.807-1.684 3.807-2.816l-.01-2.099Zm6.477 2.506c.072 1.833 1.663 2.418 3.352 2.418 1.276 0 3.008-.29 3.008-1.852 0-1.563-2.022-1.858-4.068-2.312-2.046-.455-4.072-1.147-4.072-3.531 0-2.506 2.481-3.54 4.648-3.54 2.747 0 4.938.87 5.107 3.903h-2.045c-.146-1.592-1.543-2.095-2.903-2.095-1.228 0-2.65.339-2.65 1.592 0 1.45 2.167 1.707 4.072 2.166 2.046.455 4.073 1.132 4.073 3.541 0 2.965-2.771 3.928-5.32 3.928-2.796 0-5.156-1.132-5.277-4.218h2.075ZM23.502 8.174a.87.87 0 0 1 .063.42.726.726 0 0 1 .387.968c-.112.45-.383.77-1.089.595a.72.72 0 0 0 1.32.484.53.53 0 0 1 0-.15.736.736 0 0 1 1.428.363.754.754 0 0 1-.16.31.716.716 0 0 0 .962.744.74.74 0 0 1-.396-1.05 1.04 1.04 0 0 1 .358-.483 2.995 2.995 0 0 0-2.873-2.2Zm2.418-.208A4.803 4.803 0 0 0 23.7 6.1a.774.774 0 0 1-.266.672.74.74 0 0 1 .576.634c.067 0 .096.063.096.145a3.589 3.589 0 0 1 2.138 1.156 3.826 3.826 0 0 0-.334-.74h.01Zm-14.143-.624a4.402 4.402 0 0 0-.057.406c.18.077.322.221.396.402a.726.726 0 0 1 .798.638c.111.45.03.861-.672 1.045a.726.726 0 0 0 .841.411.716.716 0 0 0 .537-.682.74.74 0 1 1 1.34-.16.721.721 0 0 0 1.403-.086c-.726 0-.91-.387-.91-.847a.715.715 0 0 1 .615-.817c.072-.402.188-.571.508-.624a.638.638 0 0 1-.383-.59 2.418 2.418 0 0 0-1.209-.266 4.91 4.91 0 0 0-3.207 1.17Zm.349-1.103a5.804 5.804 0 0 1 2.868-.759c.445 0 .888.051 1.32.155V5.49a.658.658 0 0 1-.11-.363.682.682 0 0 1 .11-.363v-.59a.658.658 0 0 1-.11-.363 3.98 3.98 0 0 0-4.078 2.428Zm-3.42 6.82a.4.4 0 0 1-.537-.203.396.396 0 0 1 0-.353 1.325 1.325 0 0 1-1.2-.213.875.875 0 0 1-1.063-.096c-.31-.242-.576-.818-.199-1.132a.726.726 0 0 1 .136-1.084.745.745 0 0 1 .065-.831.73.73 0 0 1 .418-.257.716.716 0 0 1-.28-.576.735.735 0 0 1 .663-.73.73.73 0 0 1 .802-1.112.706.706 0 0 1-.067-.305.735.735 0 0 1 .73-.73.697.697 0 0 1 .334.082.73.73 0 0 1 1.166-.73.73.73 0 0 1 1.33-.242.74.74 0 0 1 .541-.237.906.906 0 0 1 .165 0 .735.735 0 0 1 1.074-.885.748.748 0 0 1 .72-.847.74.74 0 0 1 .44.145.73.73 0 0 1 1.234-.358.734.734 0 0 1 .643-.43c.081 0 .162.014.237.043.177-.168.386-.3.614-.387V1.06h-.551V.484h.551V0h.595v.484h.552v.575h-.552v.561c.241.064.46.195.629.378a.63.63 0 0 1 .223-.063.74.74 0 0 1 .662.425.716.716 0 0 1 .518-.217.735.735 0 0 1 .716.575.74.74 0 0 1 .724-.087.73.73 0 0 1 .446.692c.102.048.237 0 .377 0a.735.735 0 0 1 .687 1.001.867.867 0 0 1 .165 0 .74.74 0 0 1 .541.237.73.73 0 0 1 1.33.242.73.73 0 0 1 1.156.6c.087.063.199.034.32.034a.735.735 0 0 1 .735.73c0 .105-.023.21-.068.305a.648.648 0 0 1 .194-.03.735.735 0 0 1 .609 1.142.73.73 0 0 1 .382 1.306.73.73 0 0 1 .58.72.745.745 0 0 1-.096.368.73.73 0 0 1 .135 1.084c.377.314.111.89-.198 1.132a.87.87 0 0 1-1.06.096 1.34 1.34 0 0 1-1.204.213.398.398 0 0 1 0 .353.413.413 0 0 1-.546.203 19.428 19.428 0 0 0-16.518 0ZM7.59 10.38c.157.125.273.293.334.484a.74.74 0 0 1-.392 1.05.72.72 0 0 0 .967-.745.736.736 0 1 1 1.262-.672c.008.05.008.1 0 .15a.72.72 0 0 0 1.297-.484c-.706.174-.968-.145-1.088-.595a.72.72 0 0 1 .386-.967.765.765 0 0 1 .078-.421 2.975 2.975 0 0 0-2.844 2.186v.015Zm2.34-2.974a.73.73 0 0 1 .576-.634.741.741 0 0 1-.28-.575 4.252 4.252 0 0 0-2.23 1.843c-.155.391-.188.483-.251.657a3.608 3.608 0 0 1 2.123-1.165l.063-.126Zm7.807-.967a.639.639 0 0 1-.382.59c.32.053.44.222.513.624a.716.716 0 0 1 .614.817c0 .46-.184.842-.91.847a.721.721 0 0 0 1.404.087.614.614 0 0 1-.034-.213.74.74 0 0 1 1.475 0 .696.696 0 0 1-.102.372.72.72 0 0 0 1.384.271c-.702-.184-.784-.595-.673-1.045a.726.726 0 0 1 .799-.638.745.745 0 0 1 .396-.402c0-.13-.034-.266-.058-.396a4.91 4.91 0 0 0-3.221-1.18 4.838 4.838 0 0 0-1.214.15l.01.116Zm4.087-.184a4.126 4.126 0 0 0-4.091-2.515.673.673 0 0 1-.107.435v.59a.644.644 0 0 1 0 .726v.145a5.558 5.558 0 0 1 1.316-.155 5.645 5.645 0 0 1 2.883.774Zm-11.579 5.238a1.451 1.451 0 0 1-.754-.27.807.807 0 0 1-.261.12c-.119.27-.273.522-.46.75.484-.227.972-.426 1.475-.6Zm12.015-1.45a1.317 1.317 0 0 1-.968.792c.484.102.968.223 1.418.363a1.33 1.33 0 0 1-.46-1.175l.01.02Zm-1.945.599a1.451 1.451 0 0 1-.585-.726.876.876 0 0 1-.251-.029c-.18.262-.443.458-.745.557.517.029 1.044.091 1.581.198Zm-5.078-.198a1.451 1.451 0 0 1-.745-.557.813.813 0 0 1-.218.03 1.737 1.737 0 0 1-.633.725c.522-.107 1.05-.17 1.581-.218l.015.02Zm-3.546-.402a1.324 1.324 0 0 1-.454 1.156c.483-.14.938-.261 1.417-.363a1.33 1.33 0 0 1-.977-.812l.014.02Zm4.552.339h1.484a1.334 1.334 0 0 1-.745-1.006 1.316 1.316 0 0 1-.755.986l.015.02Zm7.458 1.112c.484.174.968.373 1.451.585a1.451 1.451 0 0 1-.358-.716.866.866 0 0 1-.353-.14 1.45 1.45 0 0 1-.74.271Zm3.013-.546a.701.701 0 1 0 .702-.366.701.701 0 0 0-.706.366h.004Zm-4.836-2.1a.7.7 0 1 0 .856-.507.697.697 0 0 0-.885.507h.029Zm-14.51 2.032a.701.701 0 1 0-.276.967.701.701 0 0 0 .242-.967h.033Zm4.725-2.032a.7.7 0 1 0-1.356.355.7.7 0 0 0 1.356-.355Zm5.582-.527a.706.706 0 1 0-1.412-.01.706.706 0 0 0 1.412.01Zm7.39 5.587.13.556-.526.31a.208.208 0 0 1 .077.26.2.2 0 0 1-.188.129.196.196 0 0 1-.078-.017 17.668 17.668 0 0 0-14.97 0 .196.196 0 0 1-.157.002.198.198 0 0 1-.109-.113.208.208 0 0 1 .077-.261l-.551-.31.135-.556a.174.174 0 0 1-.203-.102.169.169 0 0 1 .073-.237 19.396 19.396 0 0 1 16.445 0 .184.184 0 0 1-.126.339h-.029Zm-8.097 2.142a14.994 14.994 0 1 0 0 29.987 14.994 14.994 0 0 0 0-29.987Zm0-2.007A16.982 16.982 0 1 1 4.97 19.02a17.006 17.006 0 0 1 11.998-4.993v.014Zm14.216 16.914a14.026 14.026 0 0 1-3.314 9.098l-1.625-1.625c1.751-2.128 2.902-4.232 2.902-7.608 0-3.546-1.857-7.584-4.836-9.64l-1.906 1.935a9.508 9.508 0 0 1 2.496 2.631l-1.611 1.388a7.158 7.158 0 0 0-2.36-2.466l-3.962 4.183-4.106-4.242a7.531 7.531 0 0 0-3.386 6.177c-.067 3.42 2.143 5.881 5.272 6.926v-7.037h4.977v1.562H16.75v1.77h2.94v1.785h-2.94v2.264c2.142.11 4.479-1.205 5.847-2.743l1.534 1.553a9.722 9.722 0 0 1-7.381 3.328v2.171h-1.993v-2.418a9.572 9.572 0 0 1-7.342-9.374c.038-3.061 1.664-5.625 4.034-7.415l-1.935-1.997c-3.081 2.54-4.735 5.64-4.876 9.644a11.062 11.062 0 0 0 2.932 7.662l-1.452 1.45a13.543 13.543 0 0 1-3.361-8.962 14.273 14.273 0 0 1 7.192-12.358l3.357 3.502a9.741 9.741 0 0 1 7.211 0l.17-.17 3.265-3.385a14.245 14.245 0 0 1 7.23 12.411ZM18.98 23.754a9.893 9.893 0 0 0-2.05-.329 8.034 8.034 0 0 0-2.085.271l1.935 2.012.212.14 1.988-2.094Zm-.038 3.87 8.222 8.508a18.574 18.574 0 0 1-1.712 2.345l2.06 2.056a14.777 14.777 0 0 1-4.894 3.53l-3.463-3.54c2.275-.55 4.3-1.848 5.75-3.685l-2.34-2.4c-1.258 1.5-3.188 2.903-5.234 3.029v-1.108h2.94v-2.931h-2.94v-.605h2.984v-2.728h-6.142v5.32l-4.097-4.188v-.425a6.91 6.91 0 0 1 2.718-5.418l3.87 3.976.333.334 1.945-2.07Zm-11.773.61-1.229-1.26a11.84 11.84 0 0 1 3.535-5.02l1.108 1.145a10.268 10.268 0 0 0-3.415 5.132Z"/></svg>