<svg xmlns="http://www.w3.org/2000/svg" width="68" height="96" fill="none"><g clip-path="url(#a)"><path fill="#fff" d="M46.886 16.3c.09.244.154.513.122.833.89.422.979 1.133.768 1.875-.237.896-.768 1.523-2.164 1.19a1.414 1.414 0 0 0 2.554.98c0-.084.026-.205.026-.295a1.466 1.466 0 0 1 1.779-1.037 1.472 1.472 0 0 1 1.043 1.786c-.064.237-.18.448-.326.595a1.407 1.407 0 0 0 .742 1.395c.384.212.8.237 1.184.09-1.037-.538-1.069-1.28-.768-2.08.147-.422.384-.774.704-.986a5.875 5.875 0 0 0-5.664-4.345Zm4.749-.415c-.832-1.485-2.195-2.618-4.359-3.712 0 .62-.21 1.037-.563 1.305.589.116 1.063.621 1.152 1.248.154 0 .211.122.211.301 1.748.295 3.2 1.152 4.244 2.349-.18-.512-.384-1.011-.685-1.491Zm-28-1.248c-.064.269-.09.537-.122.806.327.115.595.352.768.8.986-.064 1.395.512 1.575 1.28.236.896.064 1.696-1.332 2.08a1.427 1.427 0 0 0 1.664.807 1.395 1.395 0 0 0 1.063-1.344 1.459 1.459 0 0 1 1.248-2.202 1.458 1.458 0 0 1 1.395 1.882 1.408 1.408 0 0 0 1.363 1.01c.71 0 1.306-.511 1.395-1.19-1.427 0-1.81-.774-1.81-1.696 0-.774.268-1.427 1.215-1.638.147-.8.384-1.133 1.011-1.248a1.28 1.28 0 0 1-.742-1.158 4.525 4.525 0 0 0-2.406-.538 9.92 9.92 0 0 0-6.285 2.349Zm.678-2.202a11.546 11.546 0 0 1 5.67-1.517c.916 0 1.78.122 2.605.327v-.295a1.206 1.206 0 0 1-.204-.716c0-.27.09-.506.204-.71V8.357c-.147-.204-.204-.448-.204-.71-3.738-.358-6.676 1.754-8.064 4.787h-.007Zm-6.758 13.536c-.416.18-.864 0-1.069-.416-.122-.237-.09-.473 0-.71a2.525 2.525 0 0 1-2.374-.448c-.743.505-1.517.269-2.112-.18-.621-.473-1.12-1.606-.384-2.233-.564-.742-.41-1.728.268-2.17-.13-.226-.2-.481-.204-.742 0-.717.505-1.28 1.152-1.427a1.254 1.254 0 0 1-.564-1.101 1.472 1.472 0 0 1 1.306-1.46 1.46 1.46 0 0 1 1.216-2.258c.122 0 .269.025.384.057a1.407 1.407 0 0 1-.115-.595 1.459 1.459 0 0 1 2.112-1.312c-.032-1.037.62-1.696 1.42-1.696.295 0 .59.09.833.269a1.465 1.465 0 0 1 1.42-1.159c.506 0 .948.27 1.216.685a1.433 1.433 0 0 1 1.07-.48c.114 0 .204 0 .32.032a1.639 1.639 0 0 1-.084-.537 1.46 1.46 0 0 1 1.453-1.453c.294 0 .531.09.768.205-.026-1.044.627-1.696 1.427-1.696.326 0 .62.121.858.3a1.44 1.44 0 0 1 1.427-1.132c.416 0 .768.147 1.037.416a1.44 1.44 0 0 1 1.305-.832c.18 0 .327.032.474.09a4.031 4.031 0 0 1 1.216-.769V2.112h-1.095V.979h1.095V0h1.19v.98h1.095v1.132H34.52v1.1c.621.238.947.449 1.216.743.147-.057.295-.09.474-.09.595 0 1.069.359 1.305.833a1.45 1.45 0 0 1 1.037-.416c.685 0 1.28.48 1.427 1.132a1.434 1.434 0 0 1 2.31 1.159c.206.09.474 0 .743 0a1.46 1.46 0 0 1 1.453 1.459c0 .18-.032.358-.09.538.122-.032.212-.032.327-.032.416 0 .8.179 1.069.48a1.447 1.447 0 0 1 1.216-.685c.684 0 1.28.505 1.42 1.152a1.459 1.459 0 0 1 2.285 1.19c.18.128.416.064.653.064a1.46 1.46 0 0 1 1.453 1.46c0 .204-.058.415-.115.595.115-.032.236-.064.384-.064a1.46 1.46 0 0 1 1.216 2.265 1.434 1.434 0 0 1 1.305 1.46c0 .473-.205.895-.563 1.158a1.472 1.472 0 0 1 .947 2.176c.717.448.864 1.395.269 2.17.742.62.211 1.753-.384 2.227-.595.448-1.363.684-2.112.179a2.707 2.707 0 0 1-2.368.448.85.85 0 0 1 0 .717c-.205.416-.685.595-1.1.384a37.849 37.849 0 0 0-16.34-3.661 39.136 39.136 0 0 0-16.403 3.718Zm-2.227-5.325c.294.212.505.564.652.954.295.8.27 1.549-.768 2.08.384.154.794.122 1.184-.09a1.459 1.459 0 0 0 .743-1.395 1.56 1.56 0 0 1-.327-.595 1.473 1.473 0 0 1 1.037-1.786c.768-.21 1.575.27 1.78 1.044.031.09.031.204.031.294.32.448.916.685 1.51.538a1.447 1.447 0 0 0 1.07-1.517c-1.396.358-1.927-.301-2.17-1.19-.205-.743-.115-1.46.774-1.876-.032-.326.032-.627.148-.832a5.952 5.952 0 0 0-5.664 4.371Zm4.659-5.92a1.408 1.408 0 0 1 1.152-1.248 1.518 1.518 0 0 1-.563-1.158c-2.221.947-3.584 2.112-4.416 3.654-.327.775-.384.96-.512 1.312a7.212 7.212 0 0 1 4.217-2.323l.122-.237Zm15.45-1.875c0 .538-.295.986-.769 1.165.621.115.858.448 1.005 1.248.954.18 1.216.832 1.216 1.632 0 .928-.352 1.664-1.805 1.696a1.408 1.408 0 0 0 1.396 1.19 1.408 1.408 0 0 0 1.363-1.01 1.459 1.459 0 0 1 1.395-1.876 1.46 1.46 0 0 1 1.242 2.202c0 .627.448 1.19 1.068 1.344a1.427 1.427 0 0 0 1.664-.807c-1.395-.358-1.542-1.19-1.337-2.08.211-.749.595-1.344 1.574-1.28.205-.416.474-.685.768-.806a6.88 6.88 0 0 0-.115-.8 9.664 9.664 0 0 0-6.38-2.349c-.833 0-1.6.083-2.4.294l.114.237Zm8.102-.384c-1.363-3.065-4.275-5.21-8.103-4.998 0 .416-.057.653-.204.864v1.152c.147.211.204.448.204.717 0 .268-.09.512-.204.716v.301c.832-.211 1.69-.3 2.61-.3 2.106.031 4.065.595 5.697 1.548ZM20.608 22.88a2.893 2.893 0 0 1-1.485-.538c-.147.122-.32.212-.506.237-.294.57-.531 1.075-.915 1.46a37.016 37.016 0 0 1 2.906-1.159Zm23.82-2.918a2.611 2.611 0 0 1-1.9 1.58 44.19 44.19 0 0 1 2.816.71 2.482 2.482 0 0 1-.916-2.29Zm-3.884 1.19a2.867 2.867 0 0 1-1.159-1.427c-.237 0-.358-.032-.505-.064-.36.522-.882.911-1.485 1.107 1.043.09 2.112.205 3.149.384Zm-10.087-.384a3.06 3.06 0 0 1-1.485-1.1c-.147.025-.268.057-.416.057a3.18 3.18 0 0 1-1.216 1.427 35.425 35.425 0 0 1 3.117-.384Zm-7.001-.806a2.705 2.705 0 0 1-.896 2.29 42.312 42.312 0 0 1 2.822-.71 2.56 2.56 0 0 1-1.926-1.58Zm9.017.684c.474-.025.98-.025 1.485-.025.5 0 .98 0 1.478.025a2.771 2.771 0 0 1-1.478-1.99 2.77 2.77 0 0 1-1.485 1.99Zm14.803 2.234c.98.356 1.95.742 2.906 1.158a2.824 2.824 0 0 1-.71-1.427c-.384-.09-.564-.179-.717-.269-.41.327-.947.512-1.479.538Zm5.959-1.075a1.408 1.408 0 0 0 .537 1.907c.679.384 1.51.122 1.895-.538a1.421 1.421 0 0 0-.563-1.9 1.345 1.345 0 0 0-1.87.53Zm-9.639-4.16a1.408 1.408 0 0 0 1.012 1.696 1.402 1.402 0 0 0 1.69-1.011 1.408 1.408 0 0 0-1.012-1.696 1.357 1.357 0 0 0-1.69 1.01Zm-28.774 4.013a1.408 1.408 0 0 0-1.9-.564 1.408 1.408 0 0 0-.564 1.901 1.408 1.408 0 0 0 1.9.57 1.364 1.364 0 0 0 .564-1.907Zm9.434-4.013a1.402 1.402 0 0 0-1.69-1.011 1.408 1.408 0 0 0-1.011 1.696 1.402 1.402 0 0 0 1.69 1.01 1.37 1.37 0 0 0 1.01-1.695ZM35.32 16.57a1.396 1.396 0 1 0-2.791 0 1.396 1.396 0 0 0 2.791 0ZM49.977 27.7l.263 1.1-1.095.627c.18.115.237.32.147.531a.404.404 0 0 1-.537.212 34.393 34.393 0 0 0-14.829-3.303 34.805 34.805 0 0 0-14.829 3.303c-.211.09-.416 0-.537-.212-.09-.179 0-.416.147-.53l-1.095-.628.263-1.1a.378.378 0 0 1-.41-.212.345.345 0 0 1 .147-.474 37.99 37.99 0 0 1 16.314-3.628 38.19 38.19 0 0 1 16.288 3.628c.173.09.237.295.147.474a.358.358 0 0 1-.384.211Zm-16.051 4.255c-16.346 0-29.696 13.357-29.696 29.78 0 16.39 13.35 29.779 29.696 29.779 16.346 0 29.696-13.39 29.696-29.78 0-16.422-13.35-29.779-29.696-29.779Zm0-3.987c18.54 0 33.638 15.168 33.638 33.766 0 18.56-15.104 33.741-33.638 33.741-18.54 0-33.638-15.174-33.638-33.74 0-18.599 15.104-33.767 33.638-33.767Zm28.18 33.587a28.096 28.096 0 0 1-6.554 18.087l-3.232-3.239c3.468-4.224 5.721-8.422 5.721-15.117 0-7.052-3.68-15.084-9.58-19.161l-3.77 3.872a18.9 18.9 0 0 1 4.96 5.235l-3.207 2.765a14.26 14.26 0 0 0-4.659-4.935l-7.859 8.327-8.16-8.416c-4.147 2.88-6.554 7.136-6.669 12.256-.121 6.81 4.237 11.693 10.439 13.773V61.056h9.85v3.091h-5.908v3.514h5.818v3.513h-5.818v4.493c4.243.205 8.87-2.38 11.603-5.446l3.053 3.091c-3.648 4.314-9.05 6.58-14.624 6.605v4.313h-3.936v-4.787C21.062 77.3 14.918 69.715 15.04 60.82c.083-6.067 3.29-11.187 8.006-14.726l-3.827-3.987c-6.112 5.023-9.409 11.211-9.664 19.16-.211 7.168 3.52 12.877 5.811 15.232l-2.848 2.912a26.982 26.982 0 0 1-6.714-17.888c0-10.438 5.76-19.66 14.272-24.544l6.644 6.963a19.417 19.417 0 0 1 14.297 0l.32-.326 6.477-6.694a28.454 28.454 0 0 1 14.298 24.633h-.007ZM37.931 47.277a18.951 18.951 0 0 0-4.096-.66c-1.395-.057-2.79.244-4.121.538l3.853 3.987.416.301 3.948-4.166Zm-.09 7.616L54.157 71.82a38.54 38.54 0 0 1-3.41 4.672l4.095 4.077a29.67 29.67 0 0 1-9.702 7.02l-6.848-7.052c4.505-1.044 8.39-3.63 11.392-7.322l-4.666-4.73c-2.49 2.976-6.317 5.741-10.349 6.016v-2.208h5.812V66.47h-5.812v-1.196h5.901v-5.415H28.41V70.4l-8.128-8.333c0-.269-.032-.563 0-.832a13.76 13.76 0 0 1 5.395-10.771l7.63 7.917.652.653 3.885-4.135v-.006Zm-23.346 1.28-2.432-2.496a23.847 23.847 0 0 1 7.001-10.003l2.195 2.265a20.576 20.576 0 0 0-6.764 10.234Z"/></g><defs><clipPath id="a"><path fill="#fff" d="M0 0h67.84v96H0z"/></clipPath></defs></svg>